<?xml version="1.0" encoding="UTF-8"?>
<svg id="Capa_1" data-name="Capa 1" xmlns="http://www.w3.org/2000/svg" viewBox="0 0 583.97 287.48">
  <defs>
    <style>
      .cls-1 {
        fill: #e44525;
      }

      .cls-2 {
        fill: #e3d6d2;
      }
    </style>
  </defs>
  <g>
    <path class="cls-2" d="M561.62,115.11l21.6,37.57h-28.79l-18.11-34.58c-.44-.84-1.32-1.37-2.27-1.38h-11.85c-1.42-.01-2.57,1.14-2.57,2.56v33.4h-45.1c-1.05,0-2-.64-2.38-1.62l-6.31-15.85h-44.87l-6.33,15.85c-.18.74-1.23,1.5-2.38,1.61h-90.26l-.17-26.54c-.02-2.68-3.59-3.52-4.84-1.15-5.17,9.8-13.23,17.5-23.8,22.17-7.97,3.48-16.45,5.45-25.31,5.46l-46.17.08-.08-28.05c0-2.72-3.64-3.54-4.87-1.11-3.23,6.37-7.58,12.02-13.08,16.83-12.82,11.31-29.86,16.36-46.84,14.36-18.22-2.14-34.35-12.36-43.74-28.25-1.05-1.77-3.61-1.67-4.53.18-4.52,9.11-11.45,16.43-20.46,21.39-16.51,9.09-36.88,9.44-53.73,1.18C14.21,139.37,1.85,118.92,2.65,96.48c.64-18.13,10.25-34.79,25.52-44.67,17.88-11.66,41.27-12.65,59.95-2.27,8.96,4.97,15.96,12.34,20.35,21.33.91,1.87,3.49,1.98,4.54.19,16.75-28.39,54.43-37.06,82.44-19.98,13,7.93,22.36,20.41,25.84,35.44.23.62.45.19.39-.45v-41.01l44.29.03c15.08,0,29.94,4.45,41.06,14.64,7.17,6.58,11.66,15.04,14.26,24.4l.16.58c.03.1.13.5.16.41l.33-.91v-39.15h75.33c.31,0,.62,0,.62.12v22.16h-48.27c-1.42,0-2.57,1.15-2.57,2.56v15.16c0,1.42,1.15,2.57,2.56,2.57h40.47c.27,0,.59,0,.59.12v20.23c-.02.2-.3.48-.55.56h-40.52c-1.42,0-2.57,1.14-2.57,2.56v16.75c0,1.42,1.15,2.56,2.57,2.56h45.21c1.04,0,1.98-.62,2.37-1.58l34.42-83.82,23.55-.05,38.81,94.58c.12.85.44,1.05.54.2V45.07l47.92.02c7.2,0,13.94,1.65,20.19,4.92,8.91,4.91,15.07,13.06,17.14,23.01,3.25,15.8-2.51,30.95-17.07,38.55-1.3.68-1.79,2.29-1.06,3.55h0ZM87.81,110.26h15.92c1.57,0,2.76-1.4,2.53-2.95-.85-5.74-.96-11.28-.1-17,.24-1.55-.95-2.95-2.52-2.95l-15.75-.02c-.8-2.96-1.77-5.64-3.13-8.32-3.19-5.95-8.38-10.18-14.86-12.22-16.11-4.65-33.1,1.77-39.51,17.59-4.02,9.92-3.51,23.02,1.6,32.33,3.49,6.36,8.86,11,15.73,13.45,10.98,3.92,25.15,2.4,33.24-6.36,3.54-3.83,5.64-8.49,6.84-13.55h0ZM195.19,111.78c2.37-5.85,2.9-11.82,2.07-18.03-1.71-12.75-10.39-23.16-22.78-26.9-26.38-7.95-54.58,15.86-39.51,50.45.08.19.26.49.4.65,18.27,22.32,50.47,16.93,59.83-6.18h-.01ZM295.91,87.11c-2.41-7.87-8.02-13.77-15.56-16.95-4.22-1.62-8.52-2.72-13.17-2.74l-18.12-.07c-1.42,0-2.58,1.14-2.58,2.57v58c0,1.42,1.15,2.57,2.58,2.57l16.92-.07c4.71-.02,9.07-.89,13.43-2.41,16.92-6.19,21.43-24.82,16.5-40.89h0ZM554.7,76.95c-2.04-5.58-7.23-9.42-13.16-9.44l-19.34-.09c-1.42,0-2.58,1.14-2.58,2.57v23.17c0,1.42,1.15,2.57,2.57,2.57l19.35-.05c4.54,0,8.81-2.45,11.16-5.68,2.81-3.86,3.65-8.52,2-13.04h0ZM457.55,114.34l-13.22-33.28c-.04-.11-.08-.21-.1-.32l-.82-3.28-.87,3.32c-.03.1-.06.2-.1.29l-13.24,33.32,28.35-.04h0Z"/>
    <path class="cls-2" d="M212.59,225.09c5.15-5.85,9.49-12.89,7.27-20.63-2.56-8.95-13.25-11.08-21.23-7.08-.1.05-.21.11-.31.17-2.95,1.84-4.82,4.65-6.04,7.91-1.25,3.72-1.68,7.53-1.65,11.57h-15.79c-1.5,0-2.69,1.28-2.55,2.78,1.52,16.21-.82,33.42-10.13,46.88-10.67,15.43-28.26,20.36-46.38,17.43-7.54-1.39-14.46-4.4-20.22-9.39-2.01-1.7-3.7-3.54-5.27-5.51s-4.54-.79-4.55,1.62l-.04,11.47H3.77v-12.76c0-.73.3-1.42.83-1.9l32.97-29.85c4.52-4.14,8.78-8.12,12.82-12.68,4.37-4.93,8.35-11.03,7.84-17.64-.37-4.81-3-9.02-7.53-10.83s-10.01-1.49-14.44.84c-.11.06-.22.13-.33.2-2.85,1.91-4.64,4.61-5.84,7.82-1.24,3.71-1.68,7.54-1.63,11.55H3.63c0-20.02,8.55-38.56,29.16-43.39,15.63-3.15,33.02-.34,43.28,12.62,2.17,2.74,3.71,5.65,4.91,8.87.77,2.05,3.59,2.26,4.64.35,6.16-11.18,15.12-18.87,28.11-22.13,8.5-1.82,17.12-1.74,25.56.46,11.91,3.09,20.52,10.65,26.16,21.21,1.01,1.89,3.77,1.77,4.61-.2s1.72-3.72,2.84-5.53c4.94-7.99,12.6-13.47,21.87-15.57,8.18-1.85,16.68-1.7,24.8.47,7.63,2.03,14.23,6.22,18.97,12.45,4.55,5.97,6.65,13,7.01,20.52s-1.82,15.05-5.96,21.56c-3.44,5.41-7.59,10-12.46,14.22l-15.57,13.48c-2,1.73-.39,4.99,2.2,4.45l.13-.03c.17-.04.35-.05.53-.05h24.93c1.67,0,2.92-1.57,2.49-3.18-2.54-9.51-1.57-19.46,2.66-28.42.03-.06.06-.12.09-.19l7.19-12.99s.05-.08.07-.12l25.91-41.21h28.85l-21.9,33.51c-1.19,1.81.27,4.19,2.43,3.95,1.01-.11,2.03-.13,3.11-.02,16.92,1.1,30.21,14.22,32.01,31.02,2.1,19.55-9.99,35.83-29.07,40.25-8.36,1.94-16.87,1.78-25.13-.41-6.03-1.6-11.3-4.45-15.85-8.51-1.64-1.47-4.25-.31-4.26,1.89l-.04,5.93h-81.95v-12.77c0-.72.31-1.41.84-1.9l33.29-30.15c4.41-4.06,8.57-7.94,12.5-12.41h0ZM125.7,261.97c11.51-.2,18.23-9.63,20.58-20.54,1.9-8.81,1.76-17.88-.23-26.69-.91-4.04-2.42-7.62-4.65-11-5.14-7.78-14.71-10.82-23.4-7.24-4.25,1.75-7.45,5.12-9.73,9.12-5.78,10.16-6.17,24.72-3.73,36.06s9.44,20.49,21.17,20.29h-.01ZM52.32,260.79h28.53c1.81,0,3.08-1.83,2.38-3.51-2.93-7.09-4.39-14.31-4.97-22.02-.17-2.32-3.1-3.22-4.55-1.4-2.67,3.33-5.65,6.36-8.95,9.22l-15.41,13.35c-1.99,1.73-.4,4.97,2.18,4.45.09-.02.18-.04.27-.05.17-.03.34-.05.51-.05h.01ZM294.56,253.95c1.29-3.16,1.4-6.45.78-9.81-1.07-5.77-5.44-10.02-11.29-10.79-3.73-.49-7.52-.02-10.69,2.12-8.24,5.54-7.85,18.83-.79,23.86s18.38,3.46,21.99-5.39h0Z"/>
  </g>
  <g>
    <polygon class="cls-1" points="473.89 222.32 470.38 222.35 462.24 211.9 462.09 222.36 458.04 222.35 458.04 205.01 461.6 205.03 469.74 215.53 469.85 205 473.89 205.01 473.89 222.32"/>
    <path class="cls-1" d="M544.2,244.33c2.34,1.14,3.16,3.01,2.7,5.28-.36,1.77-2.12,3.71-4.42,3.74l-9.76.13v-17.37l8.92.09c1.87.02,3.56,1.48,4.07,2.88.73,1.96.33,3.79-1.53,5.25h.02ZM540.38,243.11c1.11-.02,1.72-1.16,1.58-2-.13-.73-.91-1.48-1.71-1.47h-3.43v3.53s3.56-.06,3.56-.06ZM540.96,250.02c1.3,0,1.97-1.14,1.91-2.07-.07-1.06-.9-1.86-2.07-1.86h-3.97v3.95l4.13-.02h0Z"/>
    <path class="cls-1" d="M469.32,253.89c-5.38-.05-9.36-4.23-9.34-9.25s4.37-8.92,9.48-8.91,9.31,3.96,9.4,8.96-4.16,9.25-9.54,9.2ZM468.83,239.47c-3.3.36-5.13,3.23-4.7,6.19s2.99,4.72,5.89,4.43,5.06-2.86,4.74-5.87-2.74-5.09-5.94-4.74h.01Z"/>
    <path class="cls-1" d="M446.21,222.77c-3.21.03-5.94-1.41-7.63-3.63-1.89-2.46-2.47-5.67-1.33-8.63,1.41-3.64,4.98-5.85,8.75-5.9s7.33,2.05,8.84,5.63c1.23,2.91.89,6.02-.95,8.58-1.63,2.28-4.37,3.91-7.69,3.94h.01ZM445.44,208.36c-3.24.4-5.1,3.25-4.58,6.3.47,2.78,3.01,4.69,6.03,4.31s4.95-2.9,4.58-5.96c-.33-2.76-2.8-5.05-6.03-4.65Z"/>
    <path class="cls-1" d="M400.9,213.05c.49,5.04-3.23,9.18-8.18,9.23l-8.11.09v-17.37l8.11.09c4.44.05,7.98,3.43,8.18,7.97h0ZM394.12,218.26c2.13-.84,2.78-2.86,2.72-4.72s-.87-3.73-2.86-4.47c-1.59-.59-3.41-.51-5.36-.45v10.12c1.93.05,3.84.18,5.49-.48h0Z"/>
    <path class="cls-1" d="M437.46,244.16c.48,5.19-3.4,9.22-8.47,9.26l-7.81.07v-17.38l8.11.09c4.44.05,7.98,3.43,8.18,7.96h0ZM430.68,249.38c2.13-.84,2.77-2.86,2.72-4.72s-.87-3.73-2.86-4.47c-1.58-.58-3.41-.51-5.36-.45v10.12c1.93.05,3.84.18,5.5-.48h0Z"/>
    <path class="cls-1" d="M559.03,253.49l-2.99-5.57c-.54-.38-2.18-.21-2.63,0l.02,5.56h-4.08v-17.37l8.49.07c2.73.02,4.81,2.25,5.25,4.42.57,2.81-.56,5.21-3.11,6.48l3.67,6.38-4.62.04h0ZM557.36,244.16c1.33-.05,1.92-1.53,1.8-2.5-.11-.83-1-1.87-1.98-1.89l-3.77-.08.04,4.61,3.91-.13h0Z"/>
    <path class="cls-1" d="M358.25,239.45c2.65,5.34.9,13.37-4.93,14.32-3.04.5-6.18-.4-7.74-3.18-1.82-3.26-1.9-7.37-.37-10.73,1.2-2.65,3.73-4.09,6.39-4.12s5.33,1.07,6.65,3.72h0ZM354.63,241.3c-.57-1.26-1.79-1.95-3.05-1.86-3.1.21-4.21,5.05-2.72,8.72.53,1.3,1.7,2.04,2.96,2.02,3.32-.06,4.49-5.14,2.81-8.88Z"/>
    <path class="cls-1" d="M484.29,244.64c-.07,2.86,1.56,4.94,4.09,5.43s4.99-.71,5.56-3.41h4.15c-.5,4-3.63,6.76-7.55,7.19-5.75.62-10.53-3.81-10.32-9.49s5.5-9.53,11.06-8.44c3.72.73,6.36,3.52,6.78,7.06l-4.13-.02c-.59-2.59-2.84-3.79-5.3-3.45s-4.27,2.36-4.34,5.14h0Z"/>
    <path class="cls-1" d="M413.94,213.52c-.07,2.83,1.57,4.91,4.03,5.42s5.03-.66,5.61-3.41h4.15c-.48,4.1-3.78,6.88-7.83,7.2-5.32.43-9.75-3.51-10.03-8.65s4-9.51,9.32-9.48c4.31.02,7.99,2.87,8.5,7.2h-4.12c-.58-2.66-2.87-3.78-5.35-3.43s-4.21,2.38-4.27,5.14h-.01Z"/>
    <path class="cls-1" d="M525.37,236.15l4.09-.03-.04,10.87c-.02,4.32-3.64,7.06-7.81,6.94-3.73-.11-7.34-2.45-7.36-6.45l-.08-11.35h4.06l-.02,10.17c0,2.2,1.24,3.78,3.27,3.92,2.13.15,3.88-1.32,3.9-3.61v-10.46h-.01Z"/>
    <polygon class="cls-1" points="451.06 246.36 444.09 246.43 444.05 249.89 452.34 249.88 452.32 253.48 439.97 253.48 439.97 236.12 452.23 236.12 452.24 239.71 444.05 239.71 444.05 243.01 451.07 243 451.06 246.36"/>
    <polygon class="cls-1" points="380.88 215.28 373.84 215.26 373.83 218.77 382.15 218.76 382.14 222.36 369.78 222.36 369.78 205 382.05 205 382.05 208.6 373.84 208.59 373.83 211.89 380.88 211.88 380.88 215.28"/>
    <polygon class="cls-1" points="576.86 246.39 569.83 246.38 569.82 249.89 578.13 249.88 578.12 253.48 565.77 253.48 565.77 236.12 578.04 236.12 578.04 239.71 569.82 239.71 569.82 243.01 576.86 243 576.86 246.39"/>
    <path class="cls-1" d="M342.57,211c3.7-.14,6.19,2.18,6.38,5.51s-2.38,5.97-5.8,6.24c-2.49.19-4.91-.52-6.31-2.51s-1.59-4.76-.23-6.96l5.12-8.29,4.64.03-3.8,5.97h0ZM341.42,214.66c-1.35.54-1.63,2.06-1.1,3.26.44,1.01,1.82,1.43,2.97,1.01s1.59-1.77,1.22-2.97-1.62-1.89-3.09-1.3h0Z"/>
    <polygon class="cls-1" points="382.15 236.17 375.47 246.88 375.48 253.48 371.43 253.48 371.41 246.97 364.74 236.1 369.49 236.16 373.46 243.29 377.44 236.11 382.15 236.17"/>
    <polygon class="cls-1" points="507.35 253.46 503.31 253.47 503.31 239.71 498.44 239.71 498.42 236.12 512.19 236.12 512.2 239.71 507.35 239.72 507.35 253.46"/>
    <path class="cls-1" d="M401.06,253.47v-13.37l-2.93.83-.02-3.38c2.14-1.15,4.41-1.72,7.01-1.4v17.31h-4.06Z"/>
    <path class="cls-1" d="M337.68,253.47v-13.46l-2.91.96-.06-3.41c2.14-1.13,4.51-1.76,7.03-1.38v17.29h-4.06Z"/>
    <path class="cls-1" d="M391.92,253.47v-13.46l-2.91.96-.06-3.41c2.14-1.13,4.51-1.76,7.03-1.38v17.29h-4.06Z"/>
    <polygon class="cls-1" points="407.48 222.32 403.41 222.36 403.41 205.04 407.48 205.04 407.48 222.32"/>
    <path class="cls-2" d="M349.09,280.4l-.06-10.94-5.11,6.62-5.09-6.75v11.06h-1.88v-14.06c.36-.08,1.56-.09,1.77.19l5.23,6.85,4.79-6.36c.55-.74,1.46-1.01,2.21-.45v13.81l-1.87.04h0Z"/>
    <path class="cls-1" d="M360.58,204.82v8.61c-1.25-.05-2.44-.26-3.2-.39-1.73.81-4.59,1.01-6.09-.91-1.36-1.73-1.42-4.29.04-6.08s4.23-1.72,6-.92c.79-.11,2-.26,3.25-.32h0ZM354.96,207.46c-1.33.33-1.51,1.6-1.12,2.45.35.75,1.44,1.08,2.18.9,1.03-.26,1.52-1.26,1.18-2.37-.19-.62-1.34-1.2-2.24-.98Z"/>
    <path class="cls-2" d="M500.42,274.75l-5.06-.14c-.37-.02-.36-1.51-.03-1.62l7.05-.02c.04,2.81-1.17,5.66-3.72,6.93-3.76,1.86-8.29.34-10.08-3.17-1.93-3.79-.43-8.22,3.33-10.02s8.58-.26,9.97,3.79c-.11.22-1.3.47-1.59.24s-.54-.59-.94-1.11c-2.13-2.7-6.51-2.52-8.56.14s-1.38,6.7,1.49,8.34c3.08,1.76,7.42.79,8.14-3.38v.02Z"/>
    <path class="cls-2" d="M529.5,280.29c-.41.14-1.53.16-1.75-.11l-8.47-10.69-.08,10.89h-1.85v-14.07c.38-.09,1.51-.07,1.78.19l8.44,10.69.08-10.88h1.85v13.97h0Z"/>
    <path class="cls-2" d="M379.06,280.29c-.41.14-1.53.16-1.75-.11l-8.47-10.69-.08,10.89h-1.85v-14.07c.38-.09,1.51-.07,1.78.19l8.44,10.69.08-10.88h1.85v13.97h0Z"/>
    <polygon class="cls-1" points="434.29 222.32 430.24 222.36 430.24 205.04 434.29 205.03 434.29 222.32"/>
    <polygon class="cls-2" points="562.99 280.34 561.3 280.29 552.77 269.47 552.7 280.39 550.85 280.37 550.85 266.29 552.57 266.45 561.11 277.27 561.17 266.29 562.99 266.31 562.99 280.34"/>
    <path class="cls-2" d="M404.58,280.66c-4.32-.06-7.34-3.4-7.43-7.3s3.17-7.2,7.26-7.36,7.71,2.99,7.86,7.08-3.21,7.65-7.69,7.59h0ZM402.94,268.01c-3.24,1.05-4.57,4.34-3.59,7.18s4.24,4.36,7.12,3.48c3.02-.92,4.58-4.03,3.72-6.93s-4.09-4.75-7.24-3.73h-.01Z"/>
    <path class="cls-2" d="M484.07,280.27l-3.02-5.13h-3.92v5.27s-1.89-.02-1.89-.02v-14.11h6.2c2.32,0,4.08,1.54,4.45,3.59s-.66,4.19-2.98,4.95l3.34,5.57-2.19-.11h0ZM481.6,273.48c1.76-.03,2.65-1.71,2.5-3.04-.16-1.48-1.32-2.52-2.97-2.51l-4,.02v5.6l4.47-.07h0Z"/>
    <path class="cls-2" d="M388.4,280.38l-5.52.03v-14.14h5.34c4.23-.02,7.17,2.82,7.33,6.81s-2.73,7.28-7.14,7.31h0ZM390.46,278.31c2.48-.89,3.33-3.23,3.14-5.49-.17-2.06-1.43-4.23-3.86-4.67-1.59-.29-3.34-.21-5.03-.22l.02,10.81c1.92,0,3.93.21,5.73-.44h0Z"/>
    <path class="cls-2" d="M575.49,277.22h-7.14l-1.32,3.01c-.27.3-1.55.19-1.98.09l5.83-13.77c.24-.45,1.85-.44,2.05.05l5.81,13.75h-1.97l-1.3-3.13h.02ZM574.78,275.59l-2.88-6.81-2.92,6.85,5.8-.04h0Z"/>
    <path class="cls-2" d="M436.22,277.2l-7.15.02-1.33,3.09c-.47.07-1.52.06-1.96.02l5.83-13.76c.19-.46,1.79-.5,2.02-.04l5.85,13.81-2,.04-1.27-3.18h0ZM435.53,275.61l-2.9-6.84-2.91,6.84h5.81Z"/>
    <path class="cls-2" d="M469.95,277.22h-7.19l-1.26,3.01c-.38.19-1.43.17-1.99.07l5.83-13.78c.23-.36,1.69-.36,1.99-.04l5.83,13.8c-.61.15-1.69.17-2.01-.08l-1.21-2.98h.01ZM469.22,275.57l-2.89-6.84-2.91,6.92,5.8-.08h0Z"/>
    <path class="cls-2" d="M513.57,273.98h-6.57l.05,4.77,7.27.02c.32.12.41,1.28.31,1.63h-9.5v-14.13h9.38v1.73h-7.51v4.38l6.44.02.11,1.59h.02Z"/>
    <path class="cls-2" d="M363.14,273.98h-6.57l.05,4.77,7.27.02c.32.12.41,1.28.31,1.63h-9.5v-14.13h9.38v1.73h-7.51v4.38l6.44.02.11,1.59h.02Z"/>
    <path class="cls-2" d="M424.89,280.41h-11.46l.13-1.63,8.55-10.92-8.21-.03.02-1.57h10.63c.11.97-.13,1.79-.72,2.39l-7.89,10.13,8.98.08-.02,1.55h-.01Z"/>
    <polygon class="cls-2" points="538.25 280.3 536.36 280.4 536.37 267.96 531.93 267.91 531.96 266.26 542.67 266.26 542.71 267.91 538.24 267.96 538.25 280.3"/>
    <polygon class="cls-2" points="547.04 280.34 545.16 280.37 545.16 266.33 547.03 266.33 547.04 280.34"/>
    <polygon class="cls-1" points="447.65 203.58 444.8 203.6 447.2 199.53 450.09 200.5 447.65 203.58"/>
    <path class="cls-2" d="M452.84,275.51h-6.76c-.04-.45.09-1.51.42-1.51h6.17c.1.22.17,1.11.17,1.51h0Z"/>
  </g>
  <g>
    <polygon class="cls-2" points="68.08 21.07 65.94 20.86 55.75 7.99 55.63 21.07 53.39 21.1 53.38 4.03 55.3 4 65.74 17.25 65.84 4.01 68.08 4.01 68.08 21.07"/>
    <path class="cls-2" d="M483.67,14.17l-6.51-.08v-2.02s8.83,0,8.83,0c.23,4.8-2.93,8.75-7.44,9.32-4.62.58-8.89-2.21-10-6.75s1.29-8.9,5.61-10.45,9.54.13,11.21,4.87c-.08.23-1.24.58-1.6.44-.43-.17-.86-.71-1.3-1.29-2.61-3.46-7.84-3.2-10.35-.11-2.67,3.29-1.77,8.49,1.78,10.36,3.85,2.02,8.84.68,9.76-4.28Z"/>
    <path class="cls-2" d="M86.74,14.17l-6.51-.08v-2.02s8.83,0,8.83,0c.23,4.8-2.93,8.75-7.44,9.32-4.62.58-8.89-2.21-10-6.75s1.29-8.9,5.61-10.45,9.54.13,11.21,4.87c-.07.23-1.24.58-1.6.44-.43-.17-.86-.71-1.3-1.29-2.61-3.46-7.84-3.2-10.35-.11-2.67,3.29-1.77,8.49,1.78,10.36,3.85,2.02,8.84.68,9.76-4.28Z"/>
    <path class="cls-2" d="M173.13,20.97l-7.65.13V3.97s7.05.07,7.05.07c4.78.05,8.01,3.69,8.23,8.07s-2.62,8.78-7.63,8.86ZM175.12,18.28c2.67-1.19,3.53-3.94,3.3-6.46-.2-2.23-1.54-4.58-4.08-5.33-2.01-.59-4.27-.48-6.62-.43v12.94c2.54.1,5.12.3,7.4-.71Z"/>
    <path class="cls-2" d="M212.82,20.97l-7.65.13V3.97s7.05.07,7.05.07c4.78.05,8.01,3.69,8.23,8.07s-2.62,8.78-7.63,8.86ZM214.82,18.28c2.67-1.19,3.53-3.94,3.3-6.46-.2-2.23-1.54-4.58-4.08-5.33-2.01-.59-4.27-.48-6.62-.43v12.94c2.54.1,5.12.3,7.4-.71Z"/>
    <polygon class="cls-2" points="559.18 21.01 557.18 21.01 546.82 7.93 546.73 21.07 544.51 21.05 544.51 4.03 546.5 4.09 556.77 17.05 556.92 4 559.17 4.01 559.18 21.01"/>
    <polygon class="cls-2" points="518.75 21.01 516.75 21.01 506.39 7.93 506.3 21.07 504.08 21.05 504.08 4.03 506.07 4.09 516.34 17.05 516.49 4 518.74 4.01 518.75 21.01"/>
    <path class="cls-2" d="M463.92,21.1l-3.8-6.42-4.67.03v6.4s-2.29-.05-2.29-.05V4.01s8.2.06,8.2.06c2.61.02,4.41,2.32,4.71,4.57.34,2.55-.99,4.84-3.65,5.7l4.05,6.67-2.55.1ZM460.98,12.7c2.16-.05,3.1-2.22,2.82-3.85-.27-1.54-1.55-2.77-3.41-2.79l-4.95-.05v6.82s5.54-.13,5.54-.13Z"/>
    <path class="cls-2" d="M403.29,21.06l-6.72.04V3.97s7.13.08,7.13.08c4.92.06,8.12,3.92,8.17,8.42.06,4.74-3.36,8.56-8.58,8.59ZM405.74,18.46c2.99-1.08,4.01-3.94,3.76-6.71-.22-2.37-1.73-4.82-4.55-5.41-1.95-.41-4.15-.33-6.16-.31v12.95c2.18.11,4.74.28,6.95-.52Z"/>
    <path class="cls-2" d="M331.24,21.42c-5.43-.04-9.19-4.38-9.02-9.33s4.43-8.66,9.54-8.47c4.92.18,8.71,4.16,8.76,8.87s-3.95,8.97-9.27,8.93ZM329.94,5.85c-4.11.85-6.08,4.71-5.26,8.25.87,3.75,4.45,5.8,8.03,5.12,3.83-.73,6.15-4.42,5.37-8.19-.74-3.51-4.2-5.99-8.14-5.18Z"/>
    <path class="cls-2" d="M40.9,21.42c-5.37,0-9.1-4.11-9.14-8.97s4.14-8.89,9.3-8.83,8.97,4.02,9,8.88c.03,4.81-3.89,8.92-9.17,8.91ZM39.24,5.9c-4.05.97-5.93,4.93-4.9,8.53s4.66,5.59,8.3,4.71c3.69-.89,5.9-4.64,4.94-8.36-.91-3.52-4.39-5.83-8.34-4.88Z"/>
    <path class="cls-2" d="M146.74,21.42c-5.38.06-9.21-4.07-9.22-8.99s4.24-8.95,9.37-8.81,8.87,4.05,8.93,8.86-3.82,8.88-9.08,8.94ZM145.06,5.88c-4.06.92-6.02,4.9-4.95,8.59s4.6,5.57,8.29,4.67,5.87-4.54,4.95-8.33c-.84-3.45-4.34-5.82-8.29-4.92Z"/>
    <path class="cls-2" d="M311.76,21.04l-6.88.07V3.97s6.94.06,6.94.06c4.98.04,8.28,3.83,8.34,8.43.06,4.64-3.2,8.52-8.4,8.57ZM314.46,18.31c2.6-1.14,3.51-3.78,3.38-6.19-.12-2.27-1.34-4.73-3.88-5.57-2.09-.69-4.48-.54-6.86-.5v12.95c2.47.07,5.1.3,7.36-.69Z"/>
    <path class="cls-2" d="M103.11,21.03l-3.66-6.31-4.75-.02v6.39s-2.25-.05-2.25-.05V3.97s8.01.08,8.01.08c2.62.02,4.53,2.24,4.86,4.43.4,2.69-.98,5.08-3.62,5.81l4.05,6.77-2.63-.02ZM100.08,12.72c2.06-.04,3.17-1.95,3.04-3.51s-1.37-3.11-3.28-3.14l-5.15-.08v6.84s5.38-.11,5.38-.11Z"/>
    <path class="cls-2" d="M354.5,21.03l-3.66-6.31-4.75-.02v6.39s-2.25-.05-2.25-.05V3.97s8.01.08,8.01.08c2.62.02,4.53,2.24,4.86,4.43.4,2.69-.98,5.08-3.62,5.81l4.05,6.77-2.63-.02ZM351.47,12.72c2.06-.04,3.17-1.95,3.04-3.51s-1.37-3.11-3.28-3.14l-5.15-.08v6.84s5.38-.11,5.38-.11Z"/>
    <path class="cls-2" d="M118.98,13.35l-7.82.03v5.66s9.23,0,9.23,0l-.02,2.04h-11.49s0-17.11,0-17.11h11.39s.01,2.05.01,2.05h-9.14s.07,5.39.07,5.39h7.4c.37,0,.55,1.25.37,1.93Z"/>
    <path class="cls-2" d="M370.37,13.35l-7.82.03v5.66s9.23,0,9.23,0l-.02,2.04h-11.49s0-17.11,0-17.11h11.39s.01,2.05.01,2.05h-9.14s.07,5.39.07,5.39h7.41c.37,0,.55,1.25.36,1.92Z"/>
    <path class="cls-2" d="M245.23,21.42c-3.78.42-7.62-1.06-8.16-4.79,3.22-2.59,1.13,3.84,8.42,2.75,1.54-.23,2.6-1.19,2.76-2.6.15-1.31-.74-2.59-2.22-2.95l-5.03-1.2c-2.36-.56-3.72-2.77-3.49-4.84.26-2.38,2.14-3.74,4.56-4.08,2.73-.39,6.04.21,7.26,2.64l.54,1.76c.13.42-1.23.57-1.7.45-.42-.11-.66-.74-1-1.39-.94-1.77-3.41-1.79-5.24-1.35-1.18.29-2.07,1.23-2.17,2.21-.14,1.31.68,2.43,2.04,2.73l4.82,1.05c2.66.58,4.26,2.87,3.9,5.33s-2.46,3.96-5.29,4.28Z"/>
    <path class="cls-2" d="M130.87,21.35c-4.45.62-7.86-.78-8.65-4.89-.08-.42,1.24-.47,1.71-.39,1.02.17.51,4.04,6.56,3.36,1.56-.18,2.74-1.19,2.92-2.56.2-1.46-.8-2.71-2.36-3.07l-4.73-1.1c-2.48-.58-3.9-2.7-3.65-4.97.28-2.48,2.48-3.77,4.99-4.05,3.25-.36,6.83.78,7.38,4.36.06.41-1.06.66-1.62.59-.48-.06-.78-.85-1.18-1.54-1-1.75-3.53-1.67-5.33-1.19-1.11.3-1.94,1.24-2.03,2.2-.1,1.1.74,2.36,1.91,2.63l5.08,1.14c2.45.55,3.99,2.67,3.82,4.85-.21,2.56-2.05,4.26-4.84,4.65Z"/>
    <path class="cls-2" d="M382.25,21.34c-3.27.42-6.78-.21-8.18-3.14l-.47-1.75c-.11-.41,1.24-.47,1.71-.39,1.03.17.51,4.04,6.56,3.36,1.55-.18,2.74-1.19,2.92-2.56.2-1.46-.8-2.71-2.36-3.07l-4.73-1.1c-2.48-.58-3.9-2.7-3.65-4.97.28-2.48,2.48-3.77,4.99-4.05,3.25-.36,6.83.77,7.38,4.36.06.41-1.08.65-1.6.58s-.8-.86-1.19-1.54c-1-1.75-3.53-1.67-5.33-1.19-1.11.3-1.94,1.24-2.03,2.2-.1,1.1.74,2.36,1.91,2.63l5.08,1.14c2.45.55,3.99,2.67,3.82,4.85-.21,2.55-2.05,4.27-4.84,4.63Z"/>
    <polygon class="cls-2" points="194.32 13.38 186.42 13.37 186.44 19.04 195.62 19.05 195.66 21.09 184.13 21.09 184.14 3.99 195.46 3.98 195.51 6.03 186.43 6.02 186.42 11.41 194.31 11.43 194.32 13.38"/>
    <path class="cls-2" d="M446.94,17.36l-8.86-.09-1.05,2.72c-.46,1.2-1.33,1.39-2.87.97l7.11-16.81c.7-.25,1.9-.22,2.4.14l7.05,16.72c-.98.2-2.45.14-2.65-.43l-1.12-3.22ZM445.92,15.28l-3.5-8.21-3.5,8.21h6.99Z"/>
    <path class="cls-2" d="M298.59,17.29h-8.87s-1.05,2.9-1.05,2.9c-.38,1.04-1.66,1.1-2.84.85l7.1-16.81c.63-.32,1.74-.32,2.41-.01l7.08,16.81c-.91.21-2.47.11-2.7-.55l-1.12-3.2ZM297.59,15.26l-3.47-8.25-3.48,8.27,6.95-.02Z"/>
    <path class="cls-2" d="M574.41,17.42l-9-.09-1.04,2.91c-.36,1.02-1.72,1.04-2.78.75l7.15-16.92,2.24-.07,7.16,16.99c-.8.21-2.4.2-2.6-.36l-1.13-3.2ZM573.32,15.24l-3.46-8.25-3.48,8.3,6.95-.05Z"/>
    <path class="cls-2" d="M26.64,8.1c-2.23-3.27-6.94-2.99-9.39-.65-2.77,2.64-2.84,7.25-.25,9.95s7.43,2.8,9.64-.46l1.14-1.68c.27-.4,2.06,0,1.91.47-1.42,4.47-5.67,6.35-9.88,5.49s-6.96-4.44-6.99-8.74c-.03-4.06,2.71-7.61,6.79-8.59s8.49.74,10.05,5.3c.16.47-1.06.89-1.64.65-.48-.2-.84-.94-1.39-1.74Z"/>
    <polygon class="cls-2" points="233.96 13.38 226 13.37 226 19.03 235.24 19.06 235.2 21.09 223.73 21.09 223.74 3.98 235.15 3.99 235.1 6.03 226 6.02 226 11.43 233.81 11.42 233.96 13.38"/>
    <polygon class="cls-2" points="499.61 13.38 491.63 13.37 491.64 19.05 500.87 19.05 500.81 21.09 489.38 21.09 489.38 3.99 500.76 3.98 500.76 6.03 491.63 6.02 491.63 11.43 499.54 11.42 499.61 13.38"/>
    <polygon class="cls-2" points="425.44 13.38 417.48 13.37 417.48 19.03 426.72 19.06 426.68 21.09 415.21 21.09 415.22 3.98 426.63 3.99 426.58 6.03 417.48 6.02 417.48 11.43 425.29 11.42 425.44 13.38"/>
    <polygon class="cls-2" points="529.24 20.99 526.97 21.07 526.98 6.02 521.58 6.04 521.62 3.98 534.62 3.98 534.63 6.03 529.22 6.02 529.24 20.99"/>
    <polygon class="cls-2" points="259.47 20.99 257.21 21.07 257.22 6.02 251.82 6.04 251.85 3.98 264.86 3.98 264.86 6.03 259.46 6.02 259.47 20.99"/>
    <polygon class="cls-2" points="285.13 19.04 285.17 21.09 274.64 21.1 274.63 4.02 276.91 4.01 276.91 19.04 285.13 19.04"/>
    <polygon class="cls-2" points="539.87 20.98 537.62 21.06 537.62 3.98 539.86 3.97 539.87 20.98"/>
    <polygon class="cls-2" points="270.02 21 267.76 21.05 267.76 4.03 270.01 3.97 270.02 21"/>
  </g>
</svg>